<?xml version="1.0" encoding="UTF-8" standalone="no"?>
<!-- Created with Inkscape (http://www.inkscape.org/) -->

<svg
   fill="#2899d4"
   xmlns:dc="http://purl.org/dc/elements/1.1/"
   xmlns:cc="http://creativecommons.org/ns#"
   xmlns:rdf="http://www.w3.org/1999/02/22-rdf-syntax-ns#"
   xmlns:svg="http://www.w3.org/2000/svg"
   xmlns="http://www.w3.org/2000/svg"
   xmlns:sodipodi="http://sodipodi.sourceforge.net/DTD/sodipodi-0.dtd"
   xmlns:inkscape="http://www.inkscape.org/namespaces/inkscape"
   viewBox="0 0 173.58398 173.58398"
   id="document"
   version="1.1"
   inkscape:version="0.91 r13725"
   sodipodi:docname="logo_blue.svg">
  <defs
     id="defs3881" />
  <sodipodi:namedview
     id="base"
     pagecolor="#2899d4"
     bordercolor="#666666"
     borderopacity="1.0"
     inkscape:pageopacity="0.0"
     inkscape:pageshadow="2"
     inkscape:zoom="2.8284271"
     inkscape:cx="-1.1278734"
     inkscape:cy="94.861325"
     inkscape:document-units="px"
     inkscape:current-layer="layer1"
     showgrid="false"
     fit-margin-top="0"
     fit-margin-left="0"
     fit-margin-right="0"
     fit-margin-bottom="0"
     inkscape:window-width="1280"
     inkscape:window-height="687"
     inkscape:window-x="9"
     inkscape:window-y="0"
     inkscape:window-maximized="0"
     units="mm" />
  <metadata
     id="metadata3884">
    <rdf:RDF>
      <cc:Work
         rdf:about="">
        <dc:format>image/svg+xml</dc:format>
        <dc:type
           rdf:resource="http://purl.org/dc/dcmitype/StillImage" />
        <dc:title></dc:title>
      </cc:Work>
    </rdf:RDF>
  </metadata>
  <g
     inkscape:label="Layer 1"
     inkscape:groupmode="layer"
     id="layer1"
     transform="translate(-236.36393,-311.28254)">
    <g
       transform="matrix(1.25,0,0,-1.25,157.11589,481.37145)"
       id="g3713" />
    <path
       d="m 99.539062,12.121094 c -47.933748,0 -86.791015,38.860468 -86.791015,86.792968 0,47.934998 38.857265,86.791018 86.791015,86.791018 47.933748,0 86.792968,-38.85602 86.792968,-86.791018 0,-47.9325 -38.85922,-86.792968 -86.792968,-86.792968 z m 0.0039,7.208984 c 43.892318,0 79.582028,35.688651 79.582028,79.582031 0,43.894551 -35.68981,79.583981 -79.582028,79.583981 -43.89571,0 -79.585938,-35.68943 -79.585938,-79.583981 0,-43.89338 35.690118,-79.582031 79.585938,-79.582031 z m 0,10 c -38.49168,0 -69.585938,31.092911 -69.585938,69.582031 0,38.490451 31.094158,69.583981 69.585938,69.583981 38.487788,0 69.582028,-31.09353 69.582028,-69.583981 0,-38.48912 -31.09434,-69.582031 -69.582028,-69.582031 z M 59.166016,60.539062 c 0.413435,-0.0047 0.819968,0.009 1.21289,0.03516 14.69213,0.0166 29.38479,-0.03301 44.076174,0.02539 3.46844,-0.14033 6.87462,2.774525 6.26367,6.427735 -0.16089,3.65561 -4.08305,5.401822 -7.31445,5.138672 l -15.111331,0 c -0.02,14.54903 0.03925,29.098391 -0.03125,43.646481 0.0392,3.41503 -2.1549,7.06927 -5.8125,7.41016 -0.36857,0.0508 -0.741311,0.0742 -1.113281,0.0742 -3.654851,0.21482 -6.758058,-2.95107 -6.929688,-6.52344 -0.26352,-6.07456 -0.05724,-12.16922 -0.123047,-18.251953 l 0,-26.355468 c -5.65209,-0.0558 -11.313344,0.11734 -16.958984,-0.09961 -3.73381,-0.0707 -6.402028,-4.031506 -5.142578,-7.535156 0.881492,-3.074662 4.090324,-3.959435 6.984375,-3.992188 z m 42.597654,29.994141 44.57422,0 c 2.42125,0 4.21914,0.536875 5.40039,1.609375 1.18125,1.07125 1.77149,2.475938 1.77149,4.210938 0,1.73625 -0.59797,3.13 -1.79297,4.187504 -1.2,1.0575 -2.99141,1.58593 -5.37891,1.58593 l -15.2832,0 0,36.59766 0,6 c 0,2.89375 -0.64766,5.0393 -1.94141,6.43555 -1.29625,1.39625 -2.96758,2.09765 -5.01758,2.09765 -2.08,0 -3.77539,-0.70859 -5.08789,-2.12109 -1.31,-1.41375 -1.96094,-3.55211 -1.96093,-6.41211 l 0,-6.09766 0,-36.5 -15.28321,0 c -2.392498,0 -4.168279,-0.52843 -5.332029,-1.58593 -1.16375,-1.057504 -1.742188,-2.451254 -1.742188,-4.187504 0,-1.7975 0.601953,-3.214063 1.814453,-4.257813 1.21,-1.04125 2.959766,-1.5625 5.259764,-1.5625 z"
       transform="translate(223.61588,299.16145)"
       id="logo"
       inkscape:label="#Logo"
       inkscape:connector-curvature="0" />
    <g
       id="g3727"
       transform="matrix(1.25,0,0,-1.25,-318.32811,1764.8952)" />
    <g
       id="g3743"
       transform="matrix(1.25,0,0,-1.25,-318.32811,1764.8952)" />
  </g>
</svg>
